<?xml version="1.0" encoding="utf-8"?>
<!-- Generator: Adobe Illustrator 16.0.0, SVG Export Plug-In . SVG Version: 6.00 Build 0)  -->
<!DOCTYPE svg PUBLIC "-//W3C//DTD SVG 1.1//EN" "http://www.w3.org/Graphics/SVG/1.1/DTD/svg11.dtd">
<svg version="1.1" xmlns="http://www.w3.org/2000/svg" xmlns:xlink="http://www.w3.org/1999/xlink" x="0px" y="0px"
     width="123.16px" height="123.16px" viewBox="0 0 123.16 123.16" enable-background="new 0 0 123.16 123.16" xml:space="preserve">
<g id="Layer_5">
</g>
<g id="Layer_4" display="none">
</g>
<g id="Layer_1" display="none">
</g>
<g id="Layer_7">
</g>
<g id="Layer_3">
    <g>
        <path fill="#66ABC4" d="M23.967,63.586c-0.031-0.512-0.071-1.019-0.118-1.521c-0.021-0.208-0.038-0.416-0.063-0.621
            c-0.066-0.624-0.146-1.239-0.24-1.847c-0.008-0.05-0.014-0.105-0.021-0.154c-0.104-0.664-0.226-1.313-0.356-1.952
            c-0.033-0.176-0.071-0.345-0.111-0.519c-0.105-0.479-0.212-0.953-0.33-1.422c-0.047-0.177-0.09-0.359-0.141-0.534
            c-0.145-0.548-0.296-1.086-0.458-1.614c-0.024-0.064-0.04-0.132-0.059-0.192c-0.187-0.602-0.388-1.189-0.599-1.771
            c-0.045-0.134-0.1-0.264-0.147-0.396c-0.166-0.45-0.341-0.896-0.517-1.328c-0.063-0.149-0.123-0.302-0.188-0.448
            c-0.203-0.479-0.406-0.951-0.622-1.413c-0.028-0.065-0.063-0.136-0.093-0.2c-0.252-0.539-0.512-1.063-0.777-1.578
            c-0.051-0.098-0.102-0.191-0.153-0.287c-0.216-0.413-0.438-0.823-0.665-1.223c-0.074-0.125-0.142-0.251-0.215-0.376
            c-0.238-0.411-0.479-0.813-0.721-1.205c-0.043-0.072-0.088-0.143-0.129-0.214c-0.293-0.469-0.592-0.925-0.888-1.369
            c-0.051-0.073-0.101-0.142-0.151-0.215c-0.248-0.364-0.498-0.723-0.75-1.073c-0.084-0.114-0.163-0.226-0.246-0.338
            c-0.242-0.332-0.486-0.653-0.729-0.972c-0.065-0.082-0.126-0.163-0.19-0.245c-0.303-0.389-0.609-0.768-0.912-1.135
            c-0.061-0.073-0.117-0.142-0.178-0.21c-0.244-0.294-0.487-0.577-0.73-0.855c-0.102-0.113-0.199-0.228-0.301-0.34
            c-0.211-0.237-0.422-0.47-0.633-0.697c-0.093-0.104-0.189-0.209-0.283-0.307c-0.281-0.303-0.566-0.595-0.843-0.881
            c-0.095-0.097-0.185-0.186-0.281-0.28c-0.19-0.191-0.377-0.378-0.564-0.561c-0.13-0.126-0.259-0.25-0.388-0.372
            c-0.145-0.138-0.291-0.272-0.434-0.405c-0.134-0.126-0.27-0.252-0.401-0.373c-0.119-0.109-0.233-0.212-0.351-0.316
            c-0.297-0.265-0.588-0.519-0.867-0.759c-0.059-0.052-0.113-0.101-0.172-0.147c-0.176-0.152-0.352-0.296-0.519-0.435
            c-0.039-0.032-0.081-0.067-0.118-0.098c-0.176-0.145-0.351-0.285-0.516-0.417c-1.333,3.551-5.846,18.003,0.343,37.692
            c-7.652,19.955,0.564,33.519,2.995,36.901c0.004-0.004,0.009-0.007,0.012-0.012c0.77-0.771,1.578-1.634,2.4-2.586
            c0.041-0.054,0.086-0.106,0.131-0.16c0.345-0.403,0.689-0.827,1.039-1.261c0.087-0.106,0.172-0.215,0.254-0.323
            c0.336-0.424,0.672-0.868,1.007-1.326c0.065-0.094,0.136-0.179,0.2-0.273c0.406-0.563,0.81-1.146,1.213-1.752
            c0.004-0.006,0.008-0.013,0.008-0.013c0.377-0.576,0.747-1.172,1.112-1.781c0.104-0.172,0.206-0.353,0.306-0.525
            c0.276-0.469,0.544-0.948,0.808-1.438c0.112-0.209,0.224-0.413,0.334-0.625c0.276-0.534,0.547-1.08,0.817-1.64
            c0.074-0.161,0.155-0.32,0.233-0.484c0.333-0.722,0.657-1.464,0.972-2.229c0.065-0.17,0.131-0.345,0.195-0.518
            c0.24-0.603,0.473-1.219,0.695-1.85c0.096-0.269,0.188-0.547,0.277-0.821c0.191-0.572,0.376-1.155,0.549-1.744
            c0.087-0.287,0.168-0.567,0.251-0.859c0.2-0.719,0.385-1.452,0.563-2.201c0.038-0.16,0.079-0.318,0.118-0.479
            c0.201-0.907,0.385-1.844,0.548-2.798c0.05-0.27,0.085-0.552,0.127-0.825c0.11-0.708,0.214-1.427,0.303-2.158
            c0.04-0.345,0.08-0.694,0.115-1.044c0.071-0.722,0.133-1.456,0.179-2.2c0.026-0.332,0.051-0.654,0.066-0.991
            c0.054-1.073,0.092-2.164,0.092-3.289c0-0.727-0.025-1.439-0.057-2.142C23.994,64.006,23.98,63.796,23.967,63.586z"/>
        <path fill="#007EA1" d="M6.142,67.664c-0.12,0.317-0.227,0.625-0.341,0.939h7.146v-1.904H5.85
            C5.947,67.021,6.04,67.342,6.142,67.664z"/>
        <path fill="#007EA1" d="M13.485,53.732l1.663-0.923c-2.451-4.407-9.216-7.101-12.118-8.09c-0.034,0.653-0.056,1.315-0.064,2.001
            C5.875,47.767,11.502,50.171,13.485,53.732z"/>
        <path fill="#007EA1" d="M3.609,91.113c0.127,0.673,0.271,1.316,0.422,1.945c3.877-2.011,11.495-6.754,12.541-13.346l-1.879-0.298
            C13.818,84.89,7.307,89.122,3.609,91.113z"/>
        <path fill="#005870" d="M18.624,18.249C28.17,11.409,39.864,7.383,52.5,7.383c32.147,0,58.207,26.056,58.207,58.202
            c0,18.079-8.247,34.237-21.185,44.913L47.195,74.145L18.624,18.249z"/>
        <path fill="#8A8A72" d="M72.389,82.25L52.5,87.228c0,0-15.36,10.251-15.166,26.168c-7.323-8.105-10.251-14.671-10.547-25.547
            c6.738-3.548,42.086-8.285,42.086-8.285L72.389,82.25z"/>
        <path fill="#BABA97" d="M38.013,102.383c-0.128,0.188-2.472,3.701-2.453,8.974c0.563,0.669,1.151,1.348,1.774,2.039
            c-0.014-1.193,0.063-2.356,0.209-3.483c0.118-1.313,0.386-2.472,0.691-3.431c0.301-1.107,0.672-2.176,1.097-3.201L38.013,102.383z
            "/>
        <path fill="#BABA97" d="M30.202,103.354c0.378,0.771,0.791,1.529,1.242,2.283c0.816-3.2,3.21-6.248,3.241-6.286l-1.488-1.187
            C33.081,98.31,31.324,100.541,30.202,103.354z"/>
        <path fill="#66ABC4" d="M61.647,8.122l2.604,13.813c0,0-23.553-1.131-37.194,17.874c-1.635-4.524-9.852-14.825-14.657-17.269
            C22.836,9.781,49.398,5.224,61.647,8.122z"/>
        <path fill="#007EA1" d="M27.058,39.81c0.415-0.58,0.845-1.145,1.278-1.691c-1.93-3.805-5.761-9.784-12.693-15.327
            c-0.284-0.227-1.33-1.228-1.986-1.727c-0.354,0.454-0.95,0.997-1.256,1.477C17.206,24.984,25.423,35.285,27.058,39.81z"/>
        <path fill="#007EA1" d="M36.689,30.278c0.545-0.383,1.1-0.75,1.649-1.102c-0.997-3.026-3.711-9.955-9.605-17.552
            c-0.627,0.234-1.24,0.48-1.847,0.734C33.158,20.318,35.872,27.711,36.689,30.278z"/>
        <path fill="#007EA1" d="M48.434,24.452c0.628-0.206,1.244-0.396,1.85-0.568c-0.515-3.307-1.863-10.028-4.895-16.141
            c-0.665,0.071-1.338,0.157-2.017,0.25C46.562,14.16,47.943,21.279,48.434,24.452z"/>
        <path fill="#007EA1" d="M61.28,76.209c0,0-13.241-6.061-15.565-21.001C43.387,40.263,51.43,26.06,64.252,21.936
            c-9.345-0.123-23.47,2.658-34.174,14.298c-7.39,8.035-8.379,15.139-8.379,15.139l-2.233-5.324c0,0-9.658,7.33-9.658,20.693
            c0,13.359,11.094,19.584,11.094,19.584l0.963-2.756c0,0,6.302,20.089,27.582,28.033c21.281,7.944,37.492-0.67,37.492-0.67
            l-4.031-24.925l-11.769-6.697L61.28,76.209z"/>
        <path fill="#8A8A72" d="M86.938,110.938c-14.55,6.85-33.054,5.897-48.47-5.253c2.379-9.37,12.961-18.186,14.031-18.452
            c2.59-0.646,19.889-4.978,19.889-4.978l8.883,6.539L86.938,110.938z"/>
        <path fill="#4A4A42" d="M88.541,103.352L67.13,89.164c0,0-13.974,6.713-12.815,17.635c9.598-0.211,38.972,0.142,38.972,0.142
            l-1.645-5.356L88.541,103.352z"/>
        <path fill="#BABA97" d="M88.541,103.352L67.13,89.164c0,0-13.974,6.713-12.815,17.635c9.598-0.211,38.972,0.142,38.972,0.142
            l-1.645-5.356L88.541,103.352z"/>
        <path fill="#007EA1" d="M103.976,57.337c0,12.776-10.358,23.134-23.131,23.134c-12.774,0-23.129-10.357-23.129-23.134
            c0-12.774,10.354-23.128,23.129-23.128C93.617,34.209,103.976,44.563,103.976,57.337z"/>
        <g>
            <g>
                <circle fill="#EFE7D7" cx="80.845" cy="57.339" r="10.985"/>
            </g>
            <path id="XMLID_21_" fill="#2B2B26" d="M89.745,57.354c0,4.918-3.985,8.906-8.903,8.906c-4.916,0-8.903-3.988-8.903-8.906
                c0-4.914,3.987-8.904,8.903-8.904C85.76,48.449,89.745,52.439,89.745,57.354z"/>
            <path fill="#EFE7D7" d="M82.799,49.639c-0.384-0.051-0.777-0.08-1.178-0.08c-4.677,0-8.472,3.79-8.472,8.468
                c0,1.727,0.518,3.337,1.409,4.676C73.305,57.659,77.166,50.235,82.799,49.639z"/>
        </g>
        <g>
            <polygon fill="#FFD500" points="92.999,59.857 92.275,67.652 97.893,66.104             "/>
            <polygon fill="#FFD500" points="82.046,62.842 81.322,70.637 86.938,69.089             "/>
            <polygon fill="#FFD500" points="111.906,54.624 111.184,62.418 116.796,60.87             "/>
            <polygon fill="#FFD500" points="102.199,57.338 101.475,65.133 107.09,63.585             "/>
        </g>
        <path fill="#D9D9AE" d="M120.152,59.994L61.28,76.209c18.037,9.261,23.685,30.379,23.547,39.494
            C108.66,104.755,121.402,90.517,120.152,59.994z"/>
        <polygon fill="#007EA1" points="71.812,42.545 91.831,60.824 96.448,48.255 83.57,39.81         "/>
        <path fill="#00E4D0" d="M2.622,67.651"/>
    </g>
</g>
<g id="Layer_2" display="none">
</g>
<g id="Layer_6" display="none">
    <circle display="inline" fill="#FFFFFF" cx="53.323" cy="63.22" r="55.199"/>
    <path display="inline" fill="#FFFFFF" d="M8.268,31.634c0,0-6.658,14.687,0,35.879c-8.27,21.567,3.382,35.123,3.382,35.123"/>
</g>
</svg>
